<mxfile host="app.diagrams.net" agent="Mozilla/5.0 (X11; Linux x86_64; rv:128.0) Gecko/20100101 Firefox/128.0" version="24.9.1">
  <diagram name="Page-1" id="-vz7Nfy8PZJqImnrAAam">
    <mxGraphModel>
      <root>
        <mxCell id="0" />
        <mxCell id="1" parent="0" />
        <mxCell id="2" value="CPU" style="whiteSpace=wrap;strokeWidth=2;verticalAlign=top;" vertex="1" parent="1">
          <mxGeometry x="8" y="8" width="317" height="1558" as="geometry" />
        </mxCell>
        <mxCell id="3" value="GPU" style="whiteSpace=wrap;strokeWidth=2;verticalAlign=top;" vertex="1" parent="2">
          <mxGeometry x="43" y="810" width="247" height="719" as="geometry" />
        </mxCell>
        <mxCell id="4" value="Storage" style="whiteSpace=wrap;strokeWidth=2;" vertex="1" parent="3">
          <mxGeometry x="64" y="429" width="116" height="49" as="geometry" />
        </mxCell>
        <mxCell id="5" value="Motherboard" style="whiteSpace=wrap;strokeWidth=2;" vertex="1" parent="3">
          <mxGeometry x="28" y="379" width="207" height="298" as="geometry" />
        </mxCell>
        <mxCell id="6" value="VRAM" style="whiteSpace=wrap;strokeWidth=2;" vertex="1" parent="3">
          <mxGeometry x="69" y="58" width="106" height="49" as="geometry" />
        </mxCell>
        <mxCell id="7" value="GPUs" style="whiteSpace=wrap;strokeWidth=2;" vertex="1" parent="3">
          <mxGeometry x="71" y="207" width="103" height="49" as="geometry" />
        </mxCell>
        <mxCell id="8" value="Network" style="whiteSpace=wrap;strokeWidth=2;" vertex="1" parent="3">
          <mxGeometry x="63" y="578" width="119" height="49" as="geometry" />
        </mxCell>
        <mxCell id="9" value="" style="curved=1;dashed=1;dashPattern=2 3;startArrow=none;endArrow=block;exitX=0.5;exitY=1;entryX=0.5;entryY=0;" edge="1" parent="3" source="6" target="7">
          <mxGeometry relative="1" as="geometry">
            <Array as="points" />
          </mxGeometry>
        </mxCell>
        <mxCell id="10" value="PCIe" style="curved=1;startArrow=none;endArrow=block;" edge="1" parent="3" source="7" target="5">
          <mxGeometry relative="1" as="geometry">
            <Array as="points" />
          </mxGeometry>
        </mxCell>
        <mxCell id="11" value="" style="curved=1;dashed=1;dashPattern=2 3;startArrow=none;endArrow=block;" edge="1" parent="3" source="5" target="4">
          <mxGeometry relative="1" as="geometry">
            <Array as="points" />
          </mxGeometry>
        </mxCell>
        <mxCell id="12" value="" style="curved=1;dashed=1;dashPattern=2 3;startArrow=none;endArrow=block;" edge="1" parent="3" source="5" target="8">
          <mxGeometry relative="1" as="geometry">
            <Array as="points" />
          </mxGeometry>
        </mxCell>
        <mxCell id="13" value="ALU" style="whiteSpace=wrap;strokeWidth=2;" vertex="1" parent="2">
          <mxGeometry x="121" y="83" width="91" height="49" as="geometry" />
        </mxCell>
        <mxCell id="14" value="Registers" style="whiteSpace=wrap;strokeWidth=2;" vertex="1" parent="2">
          <mxGeometry x="103" y="230" width="128" height="49" as="geometry" />
        </mxCell>
        <mxCell id="15" value="L1" style="whiteSpace=wrap;strokeWidth=2;" vertex="1" parent="2">
          <mxGeometry x="128" y="377" width="78" height="49" as="geometry" />
        </mxCell>
        <mxCell id="16" value="L2" style="whiteSpace=wrap;strokeWidth=2;" vertex="1" parent="2">
          <mxGeometry x="128" y="501" width="78" height="49" as="geometry" />
        </mxCell>
        <mxCell id="17" value="Memory" style="whiteSpace=wrap;strokeWidth=2;" vertex="1" parent="2">
          <mxGeometry x="108" y="663" width="118" height="49" as="geometry" />
        </mxCell>
        <mxCell id="18" value="Cores" style="whiteSpace=wrap;strokeWidth=2;" vertex="1" parent="2">
          <mxGeometry x="68" y="46" width="198" height="542" as="geometry" />
        </mxCell>
        <mxCell id="19" value="Arithmetic Logic Unit" style="curved=1;startArrow=none;endArrow=block;exitX=0.5;exitY=1;entryX=0.5;entryY=0;" edge="1" parent="2" source="13" target="14">
          <mxGeometry relative="1" as="geometry">
            <Array as="points" />
          </mxGeometry>
        </mxCell>
        <mxCell id="20" value="Cache" style="curved=1;dashed=1;dashPattern=2 3;startArrow=none;endArrow=block;exitX=0.5;exitY=1;entryX=0.5;entryY=0;" edge="1" parent="2" source="14" target="15">
          <mxGeometry relative="1" as="geometry">
            <Array as="points" />
          </mxGeometry>
        </mxCell>
        <mxCell id="21" value="" style="curved=1;dashed=1;dashPattern=2 3;startArrow=none;endArrow=block;exitX=0.5;exitY=1;entryX=0.5;entryY=0;" edge="1" parent="2" source="15" target="16">
          <mxGeometry relative="1" as="geometry">
            <Array as="points" />
          </mxGeometry>
        </mxCell>
        <mxCell id="22" value="" style="curved=1;dashed=1;dashPattern=2 3;startArrow=none;endArrow=block;exitX=0.5;exitY=1;entryX=0.5;entryY=-0.01;" edge="1" parent="2" source="16" target="17">
          <mxGeometry relative="1" as="geometry">
            <Array as="points" />
          </mxGeometry>
        </mxCell>
        <mxCell id="23" value="Data Bus" style="curved=1;startArrow=none;endArrow=block;exitX=0.5;exitY=0.99;entryX=0.5;entryY=0;" edge="1" parent="2" source="17" target="3">
          <mxGeometry relative="1" as="geometry">
            <Array as="points" />
          </mxGeometry>
        </mxCell>
      </root>
    </mxGraphModel>
  </diagram>
</mxfile>
